HIERARCHY
ROOT Hips
{
	OFFSET -14.64140 90.27770 -84.91600
	CHANNELS 6 Xposition Yposition Zposition Zrotation Xrotation Yrotation
	JOINT Spine
	{
		OFFSET 0.00000 13.20850 -1.60436
		CHANNELS 3 Zrotation Xrotation Yrotation
		JOINT Spine1
		{
			OFFSET 0.00000 8.61716 0.00000
			CHANNELS 3 Zrotation Xrotation Yrotation
			JOINT Spine2
			{
				OFFSET 0.00000 8.61717 0.00000
				CHANNELS 3 Zrotation Xrotation Yrotation
				JOINT Spine3
				{
					OFFSET 0.00000 8.61717 0.00000
					CHANNELS 3 Zrotation Xrotation Yrotation
					JOINT Neck
					{
						OFFSET 0.00000 11.07920 1.10792
						CHANNELS 3 Zrotation Xrotation Yrotation
						JOINT Neck1
						{
							OFFSET 0.00000 7.08032 0.00000
							CHANNELS 3 Zrotation Xrotation Yrotation
							JOINT Head
							{
								OFFSET 0.00000 7.08031 0.00000
								CHANNELS 3 Zrotation Xrotation Yrotation
								End site
								{
									OFFSET 0.00000 0.00000 0.00000
								}
							}
						}
					}
					JOINT RightShoulder
					{
						OFFSET -0.01000 7.91373 5.19711
						CHANNELS 3 Zrotation Xrotation Yrotation
						JOINT RightArm
						{
							OFFSET -18.41580 0.00000 0.00000
							CHANNELS 3 Zrotation Xrotation Yrotation
							JOINT RightForeArm
							{
								OFFSET -29.11090 0.00000 0.00000
								CHANNELS 3 Zrotation Xrotation Yrotation
								JOINT RightHand
								{
									OFFSET -24.65040 0.00000 0.00000
									CHANNELS 3 Zrotation Xrotation Yrotation
									JOINT RightHandThumb1
									{
										OFFSET -5.35114 -0.85590 3.97906
										CHANNELS 3 Zrotation Xrotation Yrotation
										JOINT RightHandThumb2
										{
											OFFSET -4.52789 0.00000 0.00000
											CHANNELS 3 Zrotation Xrotation Yrotation
											JOINT RightHandThumb3
											{
												OFFSET -2.46976 0.00000 0.00000
												CHANNELS 3 Zrotation Xrotation Yrotation
												End site
												{
													OFFSET 0.00000 0.00000 0.00000
												}
											}
										}
									}
									JOINT RightHandIndex1
									{
										OFFSET -14.26970 0.00000 2.88139
										CHANNELS 3 Zrotation Xrotation Yrotation
										JOINT RightHandIndex2
										{
											OFFSET -5.48836 0.00000 0.00000
											CHANNELS 3 Zrotation Xrotation Yrotation
											JOINT RightHandIndex3
											{
												OFFSET -3.01859 0.00000 0.00000
												CHANNELS 3 Zrotation Xrotation Yrotation
												End site
												{
													OFFSET 0.00000 0.00000 0.00000
												}
											}
										}
									}
									JOINT RightHandMiddle1
									{
										OFFSET -14.26970 0.00000 -0.09147
										CHANNELS 3 Zrotation Xrotation Yrotation
										JOINT RightHandMiddle2
										{
											OFFSET -6.17441 0.00000 0.00000
											CHANNELS 3 Zrotation Xrotation Yrotation
											JOINT RightHandMiddle3
											{
												OFFSET -3.56743 0.00000 0.00000
												CHANNELS 3 Zrotation Xrotation Yrotation
												End site
												{
													OFFSET 0.00000 0.00000 0.00000
												}
											}
										}
									}
									JOINT RightHandRing1
									{
										OFFSET -12.69180 0.00000 -3.06433
										CHANNELS 3 Zrotation Xrotation Yrotation
										JOINT RightHandRing2
										{
											OFFSET -5.62556 0.00000 0.00000
											CHANNELS 3 Zrotation Xrotation Yrotation
											JOINT RightHandRing3
											{
												OFFSET -3.56744 0.00000 0.00000
												CHANNELS 3 Zrotation Xrotation Yrotation
												End site
												{
													OFFSET 0.00000 0.00000 0.00000
												}
											}
										}
									}
									JOINT RightHandPinky1
									{
										OFFSET -11.11390 0.00000 -6.03719
										CHANNELS 3 Zrotation Xrotation Yrotation
										JOINT RightHandPinky2
										{
											OFFSET -4.52789 0.00000 0.00000
											CHANNELS 3 Zrotation Xrotation Yrotation
											JOINT RightHandPinky3
											{
												OFFSET -2.46976 0.00000 0.00000
												CHANNELS 3 Zrotation Xrotation Yrotation
												End site
												{
													OFFSET 0.00000 0.00000 0.00000
												}
											}
										}
									}
								}
							}
						}
					}
					JOINT LeftShoulder
					{
						OFFSET 0.01000 7.91373 5.19711
						CHANNELS 3 Zrotation Xrotation Yrotation
						JOINT LeftArm
						{
							OFFSET 18.41580 0.00000 0.00000
							CHANNELS 3 Zrotation Xrotation Yrotation
							JOINT LeftForeArm
							{
								OFFSET 29.11090 0.00000 0.00000
								CHANNELS 3 Zrotation Xrotation Yrotation
								JOINT LeftHand
								{
									OFFSET 24.65040 0.00000 0.00000
									CHANNELS 3 Zrotation Xrotation Yrotation
									JOINT LeftHandThumb1
									{
										OFFSET 5.35114 -0.85590 3.97906
										CHANNELS 3 Zrotation Xrotation Yrotation
										JOINT LeftHandThumb2
										{
											OFFSET 4.52789 0.00000 0.00000
											CHANNELS 3 Zrotation Xrotation Yrotation
											JOINT LeftHandThumb3
											{
												OFFSET 2.46977 0.00000 0.00000
												CHANNELS 3 Zrotation Xrotation Yrotation
												End site
												{
													OFFSET 0.00000 0.00000 0.00000
												}
											}
										}
									}
									JOINT LeftHandIndex1
									{
										OFFSET 14.26970 0.00000 2.88139
										CHANNELS 3 Zrotation Xrotation Yrotation
										JOINT LeftHandIndex2
										{
											OFFSET 5.48836 0.00000 0.00000
											CHANNELS 3 Zrotation Xrotation Yrotation
											JOINT LeftHandIndex3
											{
												OFFSET 3.01859 0.00000 0.00000
												CHANNELS 3 Zrotation Xrotation Yrotation
												End site
												{
													OFFSET 0.00000 0.00000 0.00000
												}
											}
										}
									}
									JOINT LeftHandMiddle1
									{
										OFFSET 14.26970 0.00000 -0.09147
										CHANNELS 3 Zrotation Xrotation Yrotation
										JOINT LeftHandMiddle2
										{
											OFFSET 6.17440 0.00000 0.00000
											CHANNELS 3 Zrotation Xrotation Yrotation
											JOINT LeftHandMiddle3
											{
												OFFSET 3.56744 0.00000 0.00000
												CHANNELS 3 Zrotation Xrotation Yrotation
												End site
												{
													OFFSET 0.00000 0.00000 0.00000
												}
											}
										}
									}
									JOINT LeftHandRing1
									{
										OFFSET 12.69180 0.00000 -3.06433
										CHANNELS 3 Zrotation Xrotation Yrotation
										JOINT LeftHandRing2
										{
											OFFSET 5.62556 0.00000 0.00000
											CHANNELS 3 Zrotation Xrotation Yrotation
											JOINT LeftHandRing3
											{
												OFFSET 3.56744 0.00000 0.00000
												CHANNELS 3 Zrotation Xrotation Yrotation
												End site
												{
													OFFSET 0.00000 0.00000 0.00000
												}
											}
										}
									}
									JOINT LeftHandPinky1
									{
										OFFSET 11.11390 0.00000 -6.03719
										CHANNELS 3 Zrotation Xrotation Yrotation
										JOINT LeftHandPinky2
										{
											OFFSET 4.52789 0.00000 0.00000
											CHANNELS 3 Zrotation Xrotation Yrotation
											JOINT LeftHandPinky3
											{
												OFFSET 2.46976 0.00000 0.00000
												CHANNELS 3 Zrotation Xrotation Yrotation
												End site
												{
													OFFSET 0.00000 0.00000 0.00000
												}
											}
										}
									}
								}
							}
						}
					}
					JOINT pCube4
					{
						OFFSET 0.00000 10.91090 1.10792
						CHANNELS 3 Zrotation Xrotation Yrotation
						End site
						{
							OFFSET 0.00000 0.00000 0.00000
						}
					}
				}
			}
		}
	}
	JOINT RightUpLeg
	{
		OFFSET -9.98441 0.00000 0.00000
		CHANNELS 3 Zrotation Xrotation Yrotation
		JOINT RightLeg
		{
			OFFSET 0.00000 -42.11790 0.00000
			CHANNELS 3 Zrotation Xrotation Yrotation
			JOINT RightFoot
			{
				OFFSET 0.00000 -45.00020 -0.00001
				CHANNELS 3 Zrotation Xrotation Yrotation
				JOINT RightForeFoot
				{
					OFFSET 0.00000 -3.74820 0.00000
					CHANNELS 3 Zrotation Xrotation Yrotation
					JOINT RightToeBase
					{
						OFFSET 0.00000 0.06325 14.43120
						CHANNELS 3 Zrotation Xrotation Yrotation
						End site
						{
							OFFSET 0.00000 0.00000 0.00000
						}
					}
				}
			}
		}
	}
	JOINT LeftUpLeg
	{
		OFFSET 9.98441 0.00000 0.00000
		CHANNELS 3 Zrotation Xrotation Yrotation
		JOINT LeftLeg
		{
			OFFSET 0.00000 -42.11800 0.00000
			CHANNELS 3 Zrotation Xrotation Yrotation
			JOINT LeftFoot
			{
				OFFSET 0.00000 -45.00070 0.00000
				CHANNELS 3 Zrotation Xrotation Yrotation
				JOINT LeftForeFoot
				{
					OFFSET 0.00000 -3.74824 0.00000
					CHANNELS 3 Zrotation Xrotation Yrotation
					JOINT LeftToeBase
					{
						OFFSET 0.00000 0.06325 14.43110
						CHANNELS 3 Zrotation Xrotation Yrotation
						End site
						{
							OFFSET 0.00000 0.00000 0.00000
						}
					}
				}
			}
		}
	}
}
MOTION
Frames: 4
Frame Time: 0.050000
-0.006082225577416391 -0.03748210814574996 0.03851400998368208 -0.0053902525399461025 -0.03758697935959231 0.019521945775969062 -4.696400130204479 7.429885700675827 -0.49706122139518527 -0.7239491817847776 2.9151028673605572 0.42893954593713945 -0.8771884372470182 -0.006753588889466717 -1.262507264473184 -1.2747955637920483 0.3185236012498016 -0.9516824109291759 -1.0555887179193557 8.663585233247776 2.45300417524971 -0.15335307285762678 -0.8495833415944253 2.254927287991559 -0.7534851402314554 -14.774799033532473 0.22147929474219333 2.9980773852301787 0.06063191325447441 -8.206604465823787 68.61260074772018 4.205431819832439 42.068920947540164 45.67765027894246 13.57910735480032 101.79517128084483 28.993770527525815 0.535576491126381 -15.253734765831949 4.513083367695743 -0.13815938659500104 -1.5687306756737551 -0.02217019474775126 0.019550526084543978 -56.207423841868525 -4.843562303369358e-05 0.008196759481886128 -56.2501816036884 -38.76808647112899 0.02714284864505965 0.049574267086928206 0.004790414325599159 -0.01795855603872765 -0.005313202051762709 0.04937230033274631 0.037402107182614996 -0.006613014779916267 -36.668005176610244 0.04382172611982037 0.03453578818083989 0.04963020623362819 -0.04610286304271831 0.04760468895194741 0.003324246315016608 -0.042430928532966254 -0.018095195298635028 -19.719665854068833 0.04357311965271277 -0.044926859418140376 0.014729846127000339 -0.004426421560909697 -0.02114371352384595 0.024599378668482635 -0.022176989749561588 0.013155544747724119 24.037933967562143 0.0028854871848418757 0.041611385230060034 28.859486236554982 0.02882656664642606 -0.04536706160391046 28.821876161504385 0.03398538823361474 0.04659413395275255 0.2227616038578947 0.5582281829535086 7.656945920344554 -62.9490310751827 18.82319055025479 -39.616909890185276 -57.63299895446135 16.011172884679702 -109.95691050389604 -25.803746828622376 -7.388644620011827 5.287161110295335 -0.5010363480601223 0.06009913981335489 -8.123068858080167 0.04192941538168277 0.04777912052606183 44.58586667626172 0.018461441288399823 -0.048578293417270886 44.61144261131666 12.429541318808493 0.01750167243322692 -0.023052822653805524 -0.036477648306146644 0.0245194573415506 -0.021111574867027232 0.01965862366313249 -0.04871997865716905 0.032527058660878426 11.064293870141272 0.01853727464931355 0.027277954630239874 -0.021343711177260413 -0.022438089852528906 0.04994141484895943 -0.02926605283425837 -0.009744767085070037 -0.04971804983882998 4.730966287921353 -0.029007193797976637 -0.037967181447279834 0.0019074559048705858 -0.04409962229337572 0.030195588524437426 -0.004750225012140121 0.018189826917000825 -0.03577798175391757 -5.557376581857077 -0.0001630747919927757 0.022770239122668817 -6.715867541529207 -0.02340064900618113 0.03339309387528911 -6.770466799346826 0.02599396399654225 0.03023667548126384 -0.001572575166309452 -0.028703974713595464 0.047660032607935554 8.073828438284137 3.4888934122854494 -19.231383354549205 -0.02727843629022191 10.429752855231861 0.021343305793464485 -5.667049616008782 -15.656123923526954 3.209882257671846 -0.006842176910340296 0.002901257480636787 0.024717842578135314 0.0038583167079418944 4.719024970175376 -0.01947119692253263 12.481858477403563 -8.23273080221333 6.885542389744457 0.021784276998299282 46.348307099738555 -0.04320221134468357 -4.287175759220649 -14.79421800423912 -3.798261077355728 -0.019183621057515334 0.008079183828308379 -0.03081163855407213 0.00513131997031548 -10.757734557125568 -0.03427198221989182 
-0.01030162229951403 0.018541512469817008 0.0010317860180907444 0.03702828838427073 0.01404217955683784 -0.030788343165618393 -4.824321426231617 7.470360094237495 -0.5260420025294354 -0.7100339613535789 2.850184409648586 0.4358693540401531 -0.8991360389390238 -0.045679135784494035 -1.2871997365380303 -1.3335645869385984 0.24642603652528502 -1.033024655755012 -0.9977104828349812 8.873877611935507 2.394675912526771 -0.13771530286909478 -0.800304812287734 2.3573527031011134 -0.6794391243134124 -14.727734570170771 0.25307106266536017 2.469831789640215 0.2563761505798398 -8.132884723527326 67.79802070260135 0.8730312216380373 44.88908029739346 43.53857004473609 12.833681964746537 102.12461069056336 29.36426562630613 0.4824591919563409 -15.001399213676267 4.562405012895992 -0.1458862770757816 -1.5718391991178458 0.02744550460653175 0.037707778900494926 -56.26301737982135 -0.008327028718346742 -0.010075266852042962 -56.19984947567619 -38.74967711558317 0.0064911462861271495 0.021163439090768822 -0.004354395612911872 0.004790542693330603 -0.024296471775058594 0.04099192687281649 -0.016868351109735738 -0.02815420618300579 -36.736332818114406 -0.013402396097733346 -0.03872432300200007 0.03548732887246802 0.008854612406860276 -0.039273868404044183 -0.005143877145025942 0.009934561261926012 0.03386805181343856 -19.786118442941795 0.03714309468897257 0.022399347028608452 0.02123944889666225 0.0184109138657968 -0.014111027940858814 -0.012121160044941154 0.010229075940187333 0.039259428237193736 24.06017227649637 0.008222480044732961 0.01014432513288847 28.864818601352827 0.04744157908805989 0.024211199437997894 28.897653612019788 0.0400243892271358 0.02144616863941788 0.48669299033042085 0.6014537974591616 7.577083338076211 -62.24875821516737 18.44287931395832 -41.31863119097828 -51.5449008086412 14.905498360218212 -108.15979756756722 -24.779410244475834 -6.725314577661851 4.602370977640046 -0.4700757146443921 0.02509221298586571 -8.116826240715238 -0.01942687479120491 0.017236354182961766 44.537549038020046 -0.03707605936003051 -0.02168726493459371 44.59990556240268 12.487099713335885 -0.04756966049672303 -0.004077856011330917 -0.018461363322600035 0.001438794732111604 0.004925518025133676 -0.012781236228908826 0.0006654182476006991 0.01736313697771694 11.139868046265061 0.016880312573526728 0.04427739861033952 -0.042771198199425084 -0.02179138333454326 -0.03881318942746184 0.03315372187683354 0.022952760633792306 -0.020316029871180655 4.8071445105955855 -0.0007183917671866551 0.011954551301473156 0.021218840570773705 0.019086152979225432 0.04466076480882576 0.0238310552034875 -0.020348743776035204 0.044169886530593436 -5.63561917182469 -0.00972655289311369 -0.012677353691451669 -6.708934382626407 -0.0009289070570173933 0.026140408618221575 -6.6712359927283424 0.04733375327203073 -0.04190511652218799 0.03607212691299219 0.0006356718666632133 0.023555296849913452 7.996363882461673 3.5177111747026077 -19.187923808996498 0.0005016603905790201 10.382729584532907 0.03632975322032181 -5.592357201962913 -15.70190610753456 3.1673523634532463 -0.039854637537815395 -0.0007572135580057624 -0.042660273980588755 0.03742929502847536 4.691648658441318 0.020174415625210825 12.447692154036222 -8.274339896055553 6.846470345179427 0.04455177697463147 46.409199927874084 -0.040812079005787545 -4.346386359522626 -14.768623235372923 -3.8239716379802875 -0.012633319767986739 0.0496191100290418 0.03491939258079895 0.03720321585344001 -10.738919950202108 -0.018148381476191786 
0.04909881349323038 0.03154320105235485 0.022329852599720975 0.003062873146427384 -0.022671239773473503 0.04577484866562723 -5.0080141370622675 7.510837450267241 -0.43757924728467645 -0.7036856713545646 2.849752564820828 0.3595156498424459 -1.0083470808660315 -0.08580114423432633 -1.34518521532423 -1.405150815727652 0.24268756198046823 -1.0006802043304723 -0.8923902362423457 8.915626514623487 2.2747388003793456 -0.16627165172567548 -0.7294476835475007 1.963382701763217 -0.5835663918913915 -14.544157686100698 0.2297781300828478 2.3448409058768322 0.32966645567677194 -8.249109144895746 66.59889365789154 -1.8512833874265995 46.04283020535813 41.30358106861467 12.453748102619514 102.8368363957464 29.954947248954163 0.47591749748337087 -14.974322380481746 4.498517773604098 -0.13294698367600938 -1.599440284323906 0.003345755659474356 0.018541349784282513 -56.256106361029396 0.03861826927492754 0.040091981067128975 -56.20212236314618 -38.75408356632239 -0.03298094918830828 -0.02892516255236008 -0.007556382467270246 -0.031327926229329735 -0.01435856903018982 0.03749784361278784 -0.013624017372708703 -0.017911854641214846 -36.69980590670397 0.03144148065985006 -0.03344882599326454 -0.04704178531578765 0.0014710082467630436 0.035306274942442976 -0.04036008946764925 -0.0031131584434844007 -0.04819043679075168 -19.750983088430022 0.03869383112087271 0.011291899068724142 -0.02920770004931057 0.014955902948430836 -0.035024157719393996 0.048515942090198196 -0.021691669613903536 -0.010741709322658005 24.033644156417783 0.028378008970610883 0.0499702088356229 28.894813892850046 0.04071323499471587 -0.019925441586296107 28.854090412708686 0.012645200174216449 0.0035812686274544294 0.25519373330302736 0.5470662753682456 7.5799323809884 -61.06369708953856 18.947111858553907 -41.26794696946655 -43.973183530840394 13.663567321852371 -106.55553237217624 -24.025028687078226 -6.2944680380706135 4.183306944544605 -0.4864432736798047 0.028987765859259433 -8.123544162658861 0.01716165400126612 0.04788048344162615 44.52494711717433 0.010532092132537285 -0.03045348109370807 44.550146831347675 12.43734996077812 0.027006668031915225 0.00029605642718996754 -0.009066733232871216 -0.03735076393857309 0.010218089255501415 -0.021728542549833748 0.04131837678208423 0.0019184832420887526 11.134685910341064 -0.030009210673873903 0.02841194305391945 -0.02867876444977358 -0.03327187295109264 -0.03784172924004058 -0.03367885517336822 0.029056204516034478 -0.013607641613771622 4.754478853539469 0.030811286386568444 0.020176904797258855 0.02079823992426081 0.010689103808069858 0.046866479797666435 0.016028430119324807 -0.021051952006049687 -0.03321686330116468 -5.575009041245478 0.025424855642469445 0.0077812634307376305 -6.690335889182165 -0.04056538242125756 -0.041356406402512765 -6.727300645307264 0.00724835219827353 0.03259216424277018 0.009516038293411038 0.010656829056515367 0.008744415762973657 8.0035184137568 3.490896152661306 -19.253342049585097 -0.045847364758832394 10.405047386975816 0.045786098955982096 -5.61589512249281 -15.613040708529418 3.182035821956998 0.01336222270511603 0.029579545966020058 -0.03440779378828313 -0.03406524363655101 4.6755161998803825 -0.04230479780009567 12.46268556628049 -8.213677922542594 6.927976866503411 0.0013223017727205452 46.38687436710295 0.022311977061991083 -4.32488036836663 -14.786948387279224 -3.8025453144158408 0.03463808294619843 -0.035372134062489666 -0.0001298674543157818 0.014002183079500043 -10.741062377295096 -0.009624127117382105 
0.04609383881153872 0.0015983191538207536 -0.038039898621362 0.027063894826526214 -0.029047104304069267 -0.009530756644958033 -5.073872489478667 7.57870974530328 -0.4373666846932647 -0.694346876451011 2.8352118087099565 0.3572879255083368 -1.002152520736378 -0.08588121375838498 -1.3395365454047905 -1.3264085328046096 0.30465463620754163 -0.9801511265745046 -0.7392072477155094 8.928961607753212 1.940500764666887 -0.07048051483479907 -0.6068265368756667 1.1289308181143125 -0.5609549488523405 -14.37639522539049 0.174875414593249 2.262692992931509 0.3727943002075229 -8.360279159192407 65.54633301937082 -4.00796956751243 46.330776576271816 37.51949509848751 11.412551341085551 103.57474086600678 29.7877285253641 0.4360316721630765 -14.557891540792632 4.566069216246756 -0.11684069108837522 -1.6296577124969014 -0.028182118898416823 0.005954999310972939 -56.21354872857426 -0.005342380732812051 0.015555558559099174 -56.28143459621485 -38.80321441628231 0.049266411385466856 -0.043785073965936554 -0.0042842350115884645 0.03611716649549131 0.023851552253796683 -0.0461571722726582 -0.03880554899373317 0.040420269071542066 -36.65929422697364 0.003664434727187989 -0.04039151510070786 0.007625394493267715 0.030309350519131605 -0.009084430334948589 0.000204433402087933 0.033304969881573505 0.04514921139460703 -19.779158009218513 -0.03231985633249553 0.0448648828307604 -0.007875146301014668 0.015750540380483975 -0.04609161433345896 -0.002293763608816791 -0.01367426105292543 -0.048570793161880774 24.072239352028262 0.016858208686888098 0.0003230131790942566 28.84412407606176 0.019111853480896078 -0.04913148314796972 28.874926150820585 0.00012508901263729298 -0.023972516514725917 -0.048638169417962326 0.48072135673470545 7.64505380165078 -59.915386597527586 20.23984026610501 -40.98492073840465 -32.893848494241354 10.716464142027462 -104.65870683721595 -22.256497267967994 -5.773943688028471 3.590309142907742 -0.48715754142040923 0.06818366903894925 -8.097935183808776 0.013765102678016903 -0.013617593926262264 44.54718307825617 -0.0006074458122728517 0.004553979341992074 44.517738260080016 12.438908320190126 0.012945523724103826 -0.030320210692719264 -0.027409231336696763 0.03403928426250695 0.049365269147954416 -0.02762328075700095 0.04213227614630118 -0.014600469978959897 11.136521260914805 -0.041709314254039884 0.024743733864871675 -0.04191728186505405 -0.015221465696306408 -0.041239804470239075 0.03677409882939979 0.0077753974454281855 -0.016328975587183377 4.809776780638771 0.01249747788296253 0.027118877200706194 -0.03001365863836802 -0.004363128629780878 0.011546033707643693 -0.03743927079262809 -0.018659063957189418 -0.003150154800257571 -5.615607827991847 -0.039335637359483186 -0.0016074575197314 -6.7384379990816 -0.019443876219199956 -0.026992555966860805 -6.733431827368989 0.023391808340133605 0.026656020594023503 0.018920517195244933 0.0026480172700147644 0.030220182555734523 8.047676716219362 3.455584802208086 -19.229620083678938 -0.01833285269290768 10.41026840018105 0.023344566999888003 -5.670086845887161 -15.662490097373045 3.182800835660141 0.021016594457570554 -0.017353606696271714 0.030505905471450923 -0.01995588079633937 4.700582002159802 -0.04360280773291651 12.468300087513903 -8.2589375824293 6.873826751842109 -0.04231291884749517 46.337774044985956 0.04172997706124514 -4.366559933124018 -14.718680475776123 -3.8341743993920656 0.020534961177062452 -0.004307043776118127 0.04903804298707228 0.017096744269385837 -10.771830397988722 0.01999763466544019 
